<mxfile host="app.diagrams.net" agent="Mozilla/5.0 (Windows NT 10.0; Win64; x64) AppleWebKit/537.36 (KHTML, like Gecko) Chrome/123.0.0.0 Safari/537.36 OPR/109.0.0.0" version="24.7.6">
  <diagram name="Página-1" id="Sz6sU0H7qLriY0RXzPGv">
    <mxGraphModel dx="986" dy="524" grid="1" gridSize="10" guides="1" tooltips="1" connect="1" arrows="1" fold="1" page="1" pageScale="1" pageWidth="827" pageHeight="1169" math="0" shadow="0">
      <root>
        <mxCell id="0" />
        <mxCell id="1" parent="0" />
        <mxCell id="v0Encb-BvqnGAzupNzeT-14" style="edgeStyle=orthogonalEdgeStyle;rounded=0;orthogonalLoop=1;jettySize=auto;html=1;" edge="1" parent="1" source="v0Encb-BvqnGAzupNzeT-2" target="v0Encb-BvqnGAzupNzeT-7">
          <mxGeometry relative="1" as="geometry">
            <Array as="points">
              <mxPoint x="100" y="40" />
            </Array>
          </mxGeometry>
        </mxCell>
        <mxCell id="v0Encb-BvqnGAzupNzeT-16" style="edgeStyle=orthogonalEdgeStyle;rounded=0;orthogonalLoop=1;jettySize=auto;html=1;" edge="1" parent="1" source="v0Encb-BvqnGAzupNzeT-2" target="v0Encb-BvqnGAzupNzeT-9">
          <mxGeometry relative="1" as="geometry">
            <Array as="points">
              <mxPoint x="100" y="360" />
            </Array>
          </mxGeometry>
        </mxCell>
        <mxCell id="v0Encb-BvqnGAzupNzeT-2" value="BRASOIL" style="shape=umlActor;verticalLabelPosition=bottom;verticalAlign=top;html=1;" vertex="1" parent="1">
          <mxGeometry x="80" y="240" width="40" height="70" as="geometry" />
        </mxCell>
        <mxCell id="v0Encb-BvqnGAzupNzeT-13" style="edgeStyle=orthogonalEdgeStyle;rounded=0;orthogonalLoop=1;jettySize=auto;html=1;" edge="1" parent="1" source="v0Encb-BvqnGAzupNzeT-6" target="v0Encb-BvqnGAzupNzeT-8">
          <mxGeometry relative="1" as="geometry">
            <Array as="points">
              <mxPoint x="740" y="200" />
            </Array>
          </mxGeometry>
        </mxCell>
        <mxCell id="v0Encb-BvqnGAzupNzeT-17" style="edgeStyle=orthogonalEdgeStyle;rounded=0;orthogonalLoop=1;jettySize=auto;html=1;" edge="1" parent="1" source="v0Encb-BvqnGAzupNzeT-6" target="v0Encb-BvqnGAzupNzeT-10">
          <mxGeometry relative="1" as="geometry">
            <Array as="points">
              <mxPoint x="740" y="520" />
            </Array>
          </mxGeometry>
        </mxCell>
        <mxCell id="v0Encb-BvqnGAzupNzeT-6" value="Fornecedores" style="shape=umlActor;verticalLabelPosition=bottom;verticalAlign=top;html=1;" vertex="1" parent="1">
          <mxGeometry x="720" y="240" width="40" height="70" as="geometry" />
        </mxCell>
        <mxCell id="v0Encb-BvqnGAzupNzeT-7" value="Cadastrar Projeto" style="ellipse;whiteSpace=wrap;html=1;" vertex="1" parent="1">
          <mxGeometry x="360" width="140" height="80" as="geometry" />
        </mxCell>
        <mxCell id="v0Encb-BvqnGAzupNzeT-8" value="Adicionar Proposta" style="ellipse;whiteSpace=wrap;html=1;" vertex="1" parent="1">
          <mxGeometry x="360" y="160" width="140" height="80" as="geometry" />
        </mxCell>
        <mxCell id="v0Encb-BvqnGAzupNzeT-9" value="Revisar Proposta" style="ellipse;whiteSpace=wrap;html=1;" vertex="1" parent="1">
          <mxGeometry x="360" y="320" width="140" height="80" as="geometry" />
        </mxCell>
        <mxCell id="v0Encb-BvqnGAzupNzeT-10" value="Agendar Entrega" style="ellipse;whiteSpace=wrap;html=1;" vertex="1" parent="1">
          <mxGeometry x="360" y="480" width="140" height="80" as="geometry" />
        </mxCell>
        <mxCell id="v0Encb-BvqnGAzupNzeT-11" style="edgeStyle=orthogonalEdgeStyle;rounded=0;orthogonalLoop=1;jettySize=auto;html=1;exitX=1;exitY=1;exitDx=0;exitDy=0;exitPerimeter=0;entryX=0.939;entryY=0.9;entryDx=0;entryDy=0;entryPerimeter=0;" edge="1" parent="1" source="v0Encb-BvqnGAzupNzeT-6" target="v0Encb-BvqnGAzupNzeT-6">
          <mxGeometry relative="1" as="geometry" />
        </mxCell>
        <mxCell id="v0Encb-BvqnGAzupNzeT-18" value="depends on" style="endArrow=open;endSize=12;dashed=1;html=1;rounded=0;" edge="1" parent="1" source="v0Encb-BvqnGAzupNzeT-8" target="v0Encb-BvqnGAzupNzeT-7">
          <mxGeometry width="160" relative="1" as="geometry">
            <mxPoint x="330" y="160" as="sourcePoint" />
            <mxPoint x="490" y="160" as="targetPoint" />
            <mxPoint as="offset" />
          </mxGeometry>
        </mxCell>
        <mxCell id="v0Encb-BvqnGAzupNzeT-19" value="depends on" style="endArrow=open;endSize=12;dashed=1;html=1;rounded=0;entryX=0.5;entryY=1;entryDx=0;entryDy=0;" edge="1" parent="1" source="v0Encb-BvqnGAzupNzeT-9" target="v0Encb-BvqnGAzupNzeT-8">
          <mxGeometry width="160" relative="1" as="geometry">
            <mxPoint x="440" y="170" as="sourcePoint" />
            <mxPoint x="440" y="90" as="targetPoint" />
          </mxGeometry>
        </mxCell>
        <mxCell id="v0Encb-BvqnGAzupNzeT-20" value="depends on" style="endArrow=open;endSize=12;dashed=1;html=1;rounded=0;exitX=0.5;exitY=0;exitDx=0;exitDy=0;" edge="1" parent="1" source="v0Encb-BvqnGAzupNzeT-10" target="v0Encb-BvqnGAzupNzeT-9">
          <mxGeometry width="160" relative="1" as="geometry">
            <mxPoint x="440" y="330" as="sourcePoint" />
            <mxPoint x="440" y="250" as="targetPoint" />
          </mxGeometry>
        </mxCell>
        <mxCell id="v0Encb-BvqnGAzupNzeT-24" value="A empresa BRASOIL precisa de um sistema para organizar as propostas de fornecedores de material de obra. Nesse sistema o BRASOIL vai cadastrar o projeto com data de vencimento e os fornecedores podem colocar propostas detalhadas. Cada proposta será revisada pelo BRASOIL para atender os critérios de qualidade e a mais barata será escolhida. Após vencimento a entrega de material será agendado com o fornecedor." style="text;whiteSpace=wrap;align=center;fontStyle=1;fontFamily=Helvetica;labelBackgroundColor=default;" vertex="1" parent="1">
          <mxGeometry x="40" y="600" width="720" height="120" as="geometry" />
        </mxCell>
      </root>
    </mxGraphModel>
  </diagram>
</mxfile>
